<mxfile host="app.diagrams.net" modified="2022-04-11T04:48:09.571Z" agent="5.0 (Windows NT 10.0; Win64; x64) AppleWebKit/537.36 (KHTML, like Gecko) Chrome/100.0.4896.75 Safari/537.36" etag="fwrOAFuiUDPlYw3al4qG" version="17.4.2" type="github">
  <diagram id="JEVat6KXCHiBd-eGgY2s" name="Page-1">
    <mxGraphModel dx="4626" dy="2688" grid="1" gridSize="10" guides="1" tooltips="1" connect="1" arrows="1" fold="1" page="1" pageScale="1" pageWidth="850" pageHeight="1100" math="0" shadow="0">
      <root>
        <mxCell id="0" />
        <mxCell id="1" parent="0" />
        <mxCell id="JJPIzS1Jl6dEuaurSNnn-75" value="" style="group" vertex="1" connectable="0" parent="1">
          <mxGeometry x="-870" y="-190" width="2320" height="1470" as="geometry" />
        </mxCell>
        <mxCell id="JJPIzS1Jl6dEuaurSNnn-73" value="" style="shape=folder;fontStyle=1;spacingTop=10;tabWidth=220;tabHeight=30;tabPosition=left;html=1;fontSize=21;" vertex="1" parent="JJPIzS1Jl6dEuaurSNnn-75">
          <mxGeometry width="2320" height="1470" as="geometry" />
        </mxCell>
        <mxCell id="JJPIzS1Jl6dEuaurSNnn-74" value="SCS - Software" style="text;html=1;align=center;verticalAlign=middle;resizable=0;points=[];autosize=1;strokeColor=none;fillColor=none;fontSize=21;" vertex="1" parent="JJPIzS1Jl6dEuaurSNnn-75">
          <mxGeometry width="160" height="30" as="geometry" />
        </mxCell>
        <mxCell id="JJPIzS1Jl6dEuaurSNnn-16" value="" style="group" vertex="1" connectable="0" parent="1">
          <mxGeometry x="-1290" y="260" width="401.54999999999995" height="360" as="geometry" />
        </mxCell>
        <mxCell id="JJPIzS1Jl6dEuaurSNnn-30" value="" style="group" vertex="1" connectable="0" parent="JJPIzS1Jl6dEuaurSNnn-16">
          <mxGeometry width="401.54999999999995" height="360" as="geometry" />
        </mxCell>
        <mxCell id="JJPIzS1Jl6dEuaurSNnn-78" value="" style="group" vertex="1" connectable="0" parent="JJPIzS1Jl6dEuaurSNnn-30">
          <mxGeometry x="-58.450000000000045" y="-60" width="460" height="420" as="geometry" />
        </mxCell>
        <mxCell id="JJPIzS1Jl6dEuaurSNnn-76" value="" style="shape=folder;fontStyle=1;spacingTop=10;tabWidth=210;tabHeight=30;tabPosition=left;html=1;fontSize=21;" vertex="1" parent="JJPIzS1Jl6dEuaurSNnn-78">
          <mxGeometry width="460.00000000000006" height="420" as="geometry" />
        </mxCell>
        <mxCell id="JJPIzS1Jl6dEuaurSNnn-77" value="SCS - Hardware v3.1" style="text;html=1;align=center;verticalAlign=middle;resizable=0;points=[];autosize=1;strokeColor=none;fillColor=none;fontSize=21;" vertex="1" parent="JJPIzS1Jl6dEuaurSNnn-78">
          <mxGeometry width="210" height="30" as="geometry" />
        </mxCell>
        <mxCell id="JJPIzS1Jl6dEuaurSNnn-17" value="" style="shape=folder;fontStyle=1;spacingTop=10;tabWidth=350;tabHeight=30;tabPosition=left;html=1;" vertex="1" parent="JJPIzS1Jl6dEuaurSNnn-30">
          <mxGeometry width="360" height="300" as="geometry" />
        </mxCell>
        <mxCell id="JJPIzS1Jl6dEuaurSNnn-18" value="&lt;span style=&quot;font-size: 18px&quot;&gt;org.lsmr.selfcheckout.devices.observers&lt;/span&gt;" style="text;html=1;align=center;verticalAlign=middle;resizable=0;points=[];autosize=1;strokeColor=none;fillColor=none;" vertex="1" parent="JJPIzS1Jl6dEuaurSNnn-30">
          <mxGeometry x="6.545454545454547" y="7.317073170731707" width="330" height="20" as="geometry" />
        </mxCell>
        <mxCell id="JJPIzS1Jl6dEuaurSNnn-20" value="«interface»&lt;br&gt;&lt;b&gt;TouchScreenObserver&lt;/b&gt;" style="html=1;fontSize=18;" vertex="1" parent="JJPIzS1Jl6dEuaurSNnn-30">
          <mxGeometry x="19.45945945945946" y="51.724137931034484" width="194.5945945945946" height="72.41379310344828" as="geometry" />
        </mxCell>
        <mxCell id="JJPIzS1Jl6dEuaurSNnn-29" value="«interface»&lt;br&gt;&lt;b&gt;KeyboardObserver&lt;/b&gt;" style="html=1;fontSize=18;" vertex="1" parent="JJPIzS1Jl6dEuaurSNnn-30">
          <mxGeometry x="19.45945945945946" y="165.51724137931035" width="194.5945945945946" height="72.41379310344828" as="geometry" />
        </mxCell>
        <mxCell id="JJPIzS1Jl6dEuaurSNnn-31" value="ProductDatabases" style="html=1;fontSize=18;" vertex="1" parent="1">
          <mxGeometry x="-850" y="145" width="150" height="60" as="geometry" />
        </mxCell>
        <mxCell id="JJPIzS1Jl6dEuaurSNnn-52" value="BaggingAreaObserver" style="html=1;fontSize=18;" vertex="1" parent="1">
          <mxGeometry x="990" y="720" width="220" height="70" as="geometry" />
        </mxCell>
        <mxCell id="JJPIzS1Jl6dEuaurSNnn-1" value="" style="shape=folder;fontStyle=1;spacingTop=10;tabWidth=200;tabHeight=30;tabPosition=left;html=1;" vertex="1" parent="1">
          <mxGeometry x="-510" y="55" width="1900" height="635" as="geometry" />
        </mxCell>
        <mxCell id="JJPIzS1Jl6dEuaurSNnn-3" value="&lt;font style=&quot;font-size: 18px&quot;&gt;seng300.software&lt;/font&gt;" style="text;html=1;align=center;verticalAlign=middle;resizable=0;points=[];autosize=1;strokeColor=none;fillColor=none;" vertex="1" parent="1">
          <mxGeometry x="-510" y="67.6978799249531" width="160" height="20" as="geometry" />
        </mxCell>
        <mxCell id="JJPIzS1Jl6dEuaurSNnn-72" style="edgeStyle=orthogonalEdgeStyle;rounded=0;orthogonalLoop=1;jettySize=auto;html=1;entryX=0.003;entryY=-0.015;entryDx=0;entryDy=0;entryPerimeter=0;fontSize=21;endArrow=classic;endFill=1;" edge="1" parent="1" source="JJPIzS1Jl6dEuaurSNnn-33" target="JJPIzS1Jl6dEuaurSNnn-47">
          <mxGeometry relative="1" as="geometry" />
        </mxCell>
        <mxCell id="JJPIzS1Jl6dEuaurSNnn-33" value="AttendantLogic" style="swimlane;fontStyle=1;align=center;verticalAlign=top;childLayout=stackLayout;horizontal=1;startSize=26;horizontalStack=0;resizeParent=1;resizeParentMax=0;resizeLast=0;collapsible=1;marginBottom=0;fontSize=18;" vertex="1" parent="1">
          <mxGeometry x="-405" y="155" width="930" height="280" as="geometry" />
        </mxCell>
        <mxCell id="JJPIzS1Jl6dEuaurSNnn-35" value="" style="line;strokeWidth=1;fillColor=none;align=left;verticalAlign=middle;spacingTop=-1;spacingLeft=3;spacingRight=3;rotatable=0;labelPosition=right;points=[];portConstraint=eastwest;fontSize=18;" vertex="1" parent="JJPIzS1Jl6dEuaurSNnn-33">
          <mxGeometry y="26" width="930" height="8" as="geometry" />
        </mxCell>
        <mxCell id="JJPIzS1Jl6dEuaurSNnn-36" value="+ emptyCoinStorageUnit(SelfCheckoutStation):void&#xa;+ emptyBanknoteStorageUnit(SelfCheckoutStation):void&#xa;+ refillsCoinDispenser(SelfCheckoutStation):void&#xa;+ refillsBanknoteDispenser(SelfCheckoutStatoin):void&#xa;+ attendantBlock(SelfCheckoutStation):void&#xa;+ attendantAddInk(SelfCheckoutStation):void&#xa;+ attendantAddPaper(SelfCheckoutStation):void&#xa;+ AttendantRemovePurchasedItem(BarcodedProduct, SelfCheckoutSystemLogic):void&#xa;+ AttendantRemovePurchasedItem(PLUCodedWeightProduct, SelfCheckoutSystemLogic):void&#xa;" style="text;strokeColor=none;fillColor=none;align=left;verticalAlign=top;spacingLeft=4;spacingRight=4;overflow=hidden;rotatable=0;points=[[0,0.5],[1,0.5]];portConstraint=eastwest;fontSize=20;" vertex="1" parent="JJPIzS1Jl6dEuaurSNnn-33">
          <mxGeometry y="34" width="930" height="246" as="geometry" />
        </mxCell>
        <mxCell id="JJPIzS1Jl6dEuaurSNnn-54" value="&lt;font style=&quot;font-size: 21px&quot;&gt;Cart&lt;/font&gt;" style="html=1;fontSize=18;" vertex="1" parent="1">
          <mxGeometry x="760" y="550" width="140" height="40" as="geometry" />
        </mxCell>
        <mxCell id="JJPIzS1Jl6dEuaurSNnn-44" value="SelfCheckoutSytemLogic" style="swimlane;fontStyle=1;align=center;verticalAlign=top;childLayout=stackLayout;horizontal=1;startSize=26;horizontalStack=0;resizeParent=1;resizeParentMax=0;resizeLast=0;collapsible=1;marginBottom=0;fontSize=18;" vertex="1" parent="1">
          <mxGeometry x="740" y="145" width="480" height="328" as="geometry" />
        </mxCell>
        <mxCell id="JJPIzS1Jl6dEuaurSNnn-45" value="+ productDatabase: ProductDatabaseLogic&#xa;+ checkout: Checkout&#xa;- baggingAreaItems: ArrayList&lt;BarcodedItem&gt;&#xa;- baggingAreaPluItems: ArrayList&lt;PLUCodedItme&gt;" style="text;strokeColor=none;fillColor=none;align=left;verticalAlign=top;spacingLeft=4;spacingRight=4;overflow=hidden;rotatable=0;points=[[0,0.5],[1,0.5]];portConstraint=eastwest;fontSize=21;" vertex="1" parent="JJPIzS1Jl6dEuaurSNnn-44">
          <mxGeometry y="26" width="480" height="114" as="geometry" />
        </mxCell>
        <mxCell id="JJPIzS1Jl6dEuaurSNnn-46" value="" style="line;strokeWidth=1;fillColor=none;align=left;verticalAlign=middle;spacingTop=-1;spacingLeft=3;spacingRight=3;rotatable=0;labelPosition=right;points=[];portConstraint=eastwest;fontSize=18;" vertex="1" parent="JJPIzS1Jl6dEuaurSNnn-44">
          <mxGeometry y="140" width="480" height="8" as="geometry" />
        </mxCell>
        <mxCell id="JJPIzS1Jl6dEuaurSNnn-47" value="+ useOwnBags():void&#xa;+ isBlocked(): boolean&#xa;+ block(): void&#xa;+ unblock():void&#xa;" style="text;strokeColor=none;fillColor=none;align=left;verticalAlign=top;spacingLeft=4;spacingRight=4;overflow=hidden;rotatable=0;points=[[0,0.5],[1,0.5]];portConstraint=eastwest;fontSize=21;" vertex="1" parent="JJPIzS1Jl6dEuaurSNnn-44">
          <mxGeometry y="148" width="480" height="180" as="geometry" />
        </mxCell>
        <mxCell id="JJPIzS1Jl6dEuaurSNnn-55" value="" style="group" vertex="1" connectable="0" parent="1">
          <mxGeometry x="-510" y="860" width="1490" height="220" as="geometry" />
        </mxCell>
        <mxCell id="JJPIzS1Jl6dEuaurSNnn-12" value="" style="shape=folder;fontStyle=1;spacingTop=10;tabWidth=250;tabHeight=30;tabPosition=left;html=1;" vertex="1" parent="JJPIzS1Jl6dEuaurSNnn-55">
          <mxGeometry width="1490" height="220" as="geometry" />
        </mxCell>
        <mxCell id="JJPIzS1Jl6dEuaurSNnn-13" value="&lt;span style=&quot;font-size: 18px&quot;&gt;org.lsmr.selfcheckout.devices&lt;/span&gt;" style="text;html=1;align=center;verticalAlign=middle;resizable=0;points=[];autosize=1;strokeColor=none;fillColor=none;" vertex="1" parent="JJPIzS1Jl6dEuaurSNnn-55">
          <mxGeometry y="8.461538461538462" width="250" height="20" as="geometry" />
        </mxCell>
        <mxCell id="JJPIzS1Jl6dEuaurSNnn-32" value="ReceiptPrinter" style="html=1;fontSize=18;" vertex="1" parent="JJPIzS1Jl6dEuaurSNnn-55">
          <mxGeometry x="850" y="59.23076923076923" width="150" height="50.76923076923077" as="geometry" />
        </mxCell>
        <mxCell id="JJPIzS1Jl6dEuaurSNnn-37" value="BanknoteStorageUnit" style="html=1;fontSize=18;" vertex="1" parent="JJPIzS1Jl6dEuaurSNnn-55">
          <mxGeometry x="1045" y="59.23076923076923" width="200" height="50.76923076923077" as="geometry" />
        </mxCell>
        <mxCell id="JJPIzS1Jl6dEuaurSNnn-38" value="BanknoteDispenser" style="html=1;fontSize=18;" vertex="1" parent="JJPIzS1Jl6dEuaurSNnn-55">
          <mxGeometry x="420" y="59.23076923076923" width="170" height="50.76923076923077" as="geometry" />
        </mxCell>
        <mxCell id="JJPIzS1Jl6dEuaurSNnn-48" value="CoinStorageUnit" style="html=1;fontSize=18;" vertex="1" parent="JJPIzS1Jl6dEuaurSNnn-55">
          <mxGeometry x="1310" y="59.23076923076923" width="150" height="50.76923076923077" as="geometry" />
        </mxCell>
        <mxCell id="JJPIzS1Jl6dEuaurSNnn-49" value="CoinDispenser" style="html=1;fontSize=18;" vertex="1" parent="JJPIzS1Jl6dEuaurSNnn-55">
          <mxGeometry x="650" y="59.23076923076923" width="150" height="50.76923076923077" as="geometry" />
        </mxCell>
        <mxCell id="JJPIzS1Jl6dEuaurSNnn-53" value="SupervisionStation" style="html=1;fontSize=18;" vertex="1" parent="JJPIzS1Jl6dEuaurSNnn-55">
          <mxGeometry x="200" y="59.23076923076923" width="170" height="50.76923076923077" as="geometry" />
        </mxCell>
        <mxCell id="JJPIzS1Jl6dEuaurSNnn-58" style="edgeStyle=orthogonalEdgeStyle;rounded=0;orthogonalLoop=1;jettySize=auto;html=1;exitX=0.412;exitY=1;exitDx=0;exitDy=0;entryX=0.5;entryY=0;entryDx=0;entryDy=0;fontSize=21;exitPerimeter=0;dashed=1;" edge="1" parent="1" source="JJPIzS1Jl6dEuaurSNnn-36" target="JJPIzS1Jl6dEuaurSNnn-38">
          <mxGeometry relative="1" as="geometry" />
        </mxCell>
        <mxCell id="JJPIzS1Jl6dEuaurSNnn-59" style="edgeStyle=orthogonalEdgeStyle;rounded=0;orthogonalLoop=1;jettySize=auto;html=1;exitX=0.484;exitY=1.001;exitDx=0;exitDy=0;entryX=0;entryY=0;entryDx=0;entryDy=0;fontSize=21;exitPerimeter=0;dashed=1;" edge="1" parent="1" source="JJPIzS1Jl6dEuaurSNnn-36" target="JJPIzS1Jl6dEuaurSNnn-49">
          <mxGeometry relative="1" as="geometry" />
        </mxCell>
        <mxCell id="JJPIzS1Jl6dEuaurSNnn-57" style="edgeStyle=orthogonalEdgeStyle;rounded=0;orthogonalLoop=1;jettySize=auto;html=1;exitX=0.192;exitY=1;exitDx=0;exitDy=0;fontSize=21;entryX=0.5;entryY=0;entryDx=0;entryDy=0;exitPerimeter=0;" edge="1" parent="1" source="JJPIzS1Jl6dEuaurSNnn-36" target="JJPIzS1Jl6dEuaurSNnn-53">
          <mxGeometry relative="1" as="geometry">
            <Array as="points">
              <mxPoint x="-226" y="436" />
              <mxPoint x="-225" y="436" />
            </Array>
          </mxGeometry>
        </mxCell>
        <mxCell id="JJPIzS1Jl6dEuaurSNnn-60" style="edgeStyle=orthogonalEdgeStyle;rounded=0;orthogonalLoop=1;jettySize=auto;html=1;exitX=0.642;exitY=1;exitDx=0;exitDy=0;entryX=0;entryY=0;entryDx=0;entryDy=0;fontSize=21;exitPerimeter=0;dashed=1;" edge="1" parent="1" source="JJPIzS1Jl6dEuaurSNnn-36" target="JJPIzS1Jl6dEuaurSNnn-32">
          <mxGeometry relative="1" as="geometry">
            <Array as="points">
              <mxPoint x="192" y="820" />
              <mxPoint x="340" y="820" />
            </Array>
          </mxGeometry>
        </mxCell>
        <mxCell id="JJPIzS1Jl6dEuaurSNnn-61" style="edgeStyle=orthogonalEdgeStyle;rounded=0;orthogonalLoop=1;jettySize=auto;html=1;exitX=0.741;exitY=1;exitDx=0;exitDy=0;entryX=0;entryY=0;entryDx=0;entryDy=0;fontSize=21;exitPerimeter=0;dashed=1;" edge="1" parent="1" source="JJPIzS1Jl6dEuaurSNnn-36" target="JJPIzS1Jl6dEuaurSNnn-37">
          <mxGeometry relative="1" as="geometry" />
        </mxCell>
        <mxCell id="JJPIzS1Jl6dEuaurSNnn-63" style="edgeStyle=orthogonalEdgeStyle;rounded=0;orthogonalLoop=1;jettySize=auto;html=1;exitX=0.983;exitY=1;exitDx=0;exitDy=0;entryX=0;entryY=0;entryDx=0;entryDy=0;fontSize=21;exitPerimeter=0;dashed=1;" edge="1" parent="1" source="JJPIzS1Jl6dEuaurSNnn-36" target="JJPIzS1Jl6dEuaurSNnn-48">
          <mxGeometry relative="1" as="geometry">
            <Array as="points">
              <mxPoint x="509" y="620" />
              <mxPoint x="710" y="620" />
              <mxPoint x="710" y="810" />
              <mxPoint x="800" y="810" />
            </Array>
          </mxGeometry>
        </mxCell>
        <mxCell id="JJPIzS1Jl6dEuaurSNnn-67" style="edgeStyle=orthogonalEdgeStyle;rounded=0;orthogonalLoop=1;jettySize=auto;html=1;exitX=0.189;exitY=1.002;exitDx=0;exitDy=0;entryX=0.5;entryY=0;entryDx=0;entryDy=0;fontSize=21;exitPerimeter=0;" edge="1" parent="1" source="JJPIzS1Jl6dEuaurSNnn-47" target="JJPIzS1Jl6dEuaurSNnn-54">
          <mxGeometry relative="1" as="geometry" />
        </mxCell>
        <mxCell id="JJPIzS1Jl6dEuaurSNnn-68" style="edgeStyle=orthogonalEdgeStyle;rounded=0;orthogonalLoop=1;jettySize=auto;html=1;exitX=0.705;exitY=1.002;exitDx=0;exitDy=0;entryX=0.5;entryY=0;entryDx=0;entryDy=0;fontSize=21;exitPerimeter=0;" edge="1" parent="1" source="JJPIzS1Jl6dEuaurSNnn-47" target="JJPIzS1Jl6dEuaurSNnn-52">
          <mxGeometry relative="1" as="geometry" />
        </mxCell>
        <mxCell id="JJPIzS1Jl6dEuaurSNnn-69" style="edgeStyle=orthogonalEdgeStyle;rounded=0;orthogonalLoop=1;jettySize=auto;html=1;exitX=0;exitY=0.068;exitDx=0;exitDy=0;entryX=1;entryY=0.5;entryDx=0;entryDy=0;fontSize=21;exitPerimeter=0;" edge="1" parent="1" source="JJPIzS1Jl6dEuaurSNnn-36" target="JJPIzS1Jl6dEuaurSNnn-31">
          <mxGeometry relative="1" as="geometry" />
        </mxCell>
        <mxCell id="JJPIzS1Jl6dEuaurSNnn-70" style="edgeStyle=orthogonalEdgeStyle;rounded=0;orthogonalLoop=1;jettySize=auto;html=1;exitX=0;exitY=0.781;exitDx=0;exitDy=0;entryX=1;entryY=0.5;entryDx=0;entryDy=0;fontSize=21;exitPerimeter=0;endArrow=block;endFill=0;" edge="1" parent="1" source="JJPIzS1Jl6dEuaurSNnn-36" target="JJPIzS1Jl6dEuaurSNnn-29">
          <mxGeometry relative="1" as="geometry" />
        </mxCell>
      </root>
    </mxGraphModel>
  </diagram>
</mxfile>
